# xmcd
#
# Track frame offsets: 
#        150
#        16146
#        32578
#        50768
#        82800
#        98720
#        119588
#        136744
#        153975
#        170299
#        184950
#        198844
#        213172
#        226005
#        241021
#        257555
#        275186
#
# Disc length: 3874 seconds
#
# Revision: 0
# Processed by: cddbd v1.5.2PL0 Copyright (c) Steve Scherf et al.
# Submitted via: ExactAudioCopy v1.3
#
DISCID=d50f2011
DTITLE=Various Artist - Best Of Blues and Roots 2017 [CD2)
DYEAR=2017
DGENRE=Blues
TTITLE0=River Whyless - All Day All Night
TTITLE1=Kaleo - Way Down We Go
TTITLE2=Max Jury - Numb
TTITLE3=Michael Kiwanuka - Love and Hate
TTITLE4=Turin Brakes - Save You
TTITLE5=City and Colour - Peaceful Road
TTITLE6=Andrew Phelan - Young Hearts (live)
TTITLE7=Josh Pyke and Sydney Symphony Orchestra - The Summer
TTITLE8=The Waifs - Ironbark
TTITLE9=Winterbourne - To Get To Know You
TTITLE10=Busby Marou - Getaway Car
TTITLE11=Tami Neilson - Holy Moses
TTITLE12=Melbourne Ska Orchestra - Mercy Lord
TTITLE13=Taasha Coates - High Times
TTITLE14=Pierce Brothers - Overdose
TTITLE15=Raised By Eagles - Shape and Line
TTITLE16=All Our Exes Live In Texas - Boundary Road
EXTD=
EXTT0=
EXTT1=
EXTT2=
EXTT3=
EXTT4=
EXTT5=
EXTT6=
EXTT7=
EXTT8=
EXTT9=
EXTT10=
EXTT11=
EXTT12=
EXTT13=
EXTT14=
EXTT15=
EXTT16=
PLAYORDER=
